<svg width="30" height="45" viewBox="0 0 30 45" fill="none" xmlns="http://www.w3.org/2000/svg">
<path d="M15 45C23.2843 45 30 43.5078 30 41.6672C30 39.8265 23.2843 38.3344 15 38.3344C6.71573 38.3344 0 39.8265 0 41.6672C0 43.5078 6.71573 45 15 45Z" fill="#34D1B2"/>
<path d="M15.3905 41.5012C14.7372 41.5012 14.1327 41.1564 13.8005 40.5948L11.7767 37.1748C7.62069 30.1564 3.69563 23.5266 2.35502 20.838C1.38049 18.841 0.889736 16.709 0.889736 14.4868C0.889736 6.49874 7.39476 0 15.3905 0C23.3862 0 29.8913 6.49874 29.8913 14.4868C29.8913 16.707 29.401 18.839 28.434 20.8231C28.4225 20.847 28.4095 20.8709 28.3971 20.8943C27.0305 23.6188 23.1304 30.2057 19.0028 37.1763L16.9805 40.5948C16.6483 41.1564 16.0438 41.5012 15.3905 41.5012Z" fill="#FF8B40"/>
<path d="M15.3905 21.0633C11.4789 21.0633 8.29696 17.8844 8.29696 13.9766C8.29696 10.0688 11.4789 6.88989 15.3905 6.88989C19.3016 6.88989 22.484 10.0693 22.484 13.9766C22.484 17.8839 19.3016 21.0633 15.3905 21.0633Z" fill="white"/>
</svg>
