<svg width="40" height="60" viewBox="0 0 40 60" fill="none" xmlns="http://www.w3.org/2000/svg">
<path d="M20 60C31.0457 60 40 58.0105 40 55.5562C40 53.102 31.0457 51.1125 20 51.1125C8.9543 51.1125 0 53.102 0 55.5562C0 58.0105 8.9543 60 20 60Z" fill="#34D1B2"/>
<path d="M20.5207 55.3349C19.6496 55.3349 18.8436 54.8752 18.4007 54.1265L15.7022 49.5664C10.1609 40.2085 4.92753 31.3688 3.14006 27.784C1.84068 25.1214 1.18634 22.2787 1.18634 19.3157C1.18634 8.66499 9.8597 0 20.5207 0C31.1817 0 39.855 8.66499 39.855 19.3157C39.855 22.276 39.2014 25.1187 37.912 27.7641C37.8967 27.796 37.8794 27.8279 37.8628 27.8591C36.0407 31.4917 30.8405 40.2743 25.3372 49.5684L22.6407 54.1265C22.1978 54.8752 21.3918 55.3349 20.5207 55.3349Z" fill="#FF8B40"/>
<path d="M20.5207 28.0843C15.3052 28.0843 11.0626 23.8458 11.0626 18.6354C11.0626 13.425 15.3052 9.18649 20.5207 9.18649C25.7354 9.18649 29.9787 13.4256 29.9787 18.6354C29.9787 23.8452 25.7354 28.0843 20.5207 28.0843Z" fill="white"/>
</svg>
